# xmcd CD database file
#
# Track frame offsets:
#	183
#	14063
#	28258
#	53228
#	74858
#	86333
#	105978
#	121208
#	136795
#	152145
#	167783
#	184208
#
# Disc length: 2702 seconds
#
# Revision: 1
# Processed by: cddbd v1.4PL0 Copyright (c) Steve Scherf et al.
# Submitted via: CDex 1.50beta9
#
DISCID=a40a8c0c
DTITLE=Errol Dixon - Mr. Boogie Woogie
DYEAR=1990
DGENRE=Jazz
TTITLE0=walking with Maxi
TTITLE1=Mr. Boogie Woogie
TTITLE2=open the door
TTITLE3=the day before yesterday
TTITLE4=do it for me
TTITLE5=classical inspiration
TTITLE6=midnight train
TTITLE7=I only want to be with you
TTITLE8=mystical salutation
TTITLE9=I don't know
TTITLE10=black rock boogie
TTITLE11=back street
EXTD=YEAR: 1990
EXTT0=
EXTT1=
EXTT2=
EXTT3=
EXTT4=
EXTT5=
EXTT6=
EXTT7=
EXTT8=
EXTT9=
EXTT10=
EXTT11=
PLAYORDER=
